<?xml version="1.0" encoding="UTF-8"?>
<svg xmlns="http://www.w3.org/2000/svg" xmlns:xlink="http://www.w3.org/1999/xlink" width="240px" height="240px" viewBox="0 0 240 240" version="1.1">
<g id="surface693086">
<path style=" stroke:none;fill-rule:nonzero;fill:rgb(12.941176%,58.823529%,95.294118%);fill-opacity:1;" d="M 171.996094 30.296875 C 174.664062 29.726562 177.109375 29.214844 179.554688 28.671875 C 179.75 28.625 180.035156 28.324219 180.039062 28.144531 C 180.066406 25.449219 180.058594 22.753906 180.058594 20 C 177.5 20.585938 175.089844 21.113281 172.695312 21.714844 C 172.421875 21.785156 172.03125 22.191406 172.03125 22.445312 C 171.980469 24.988281 171.996094 27.546875 171.996094 30.296875 Z M 180.066406 220 C 180.066406 217.25 180.078125 214.585938 180.03125 211.921875 C 180.023438 211.691406 179.574219 211.339844 179.28125 211.269531 C 177.738281 210.894531 176.191406 210.585938 174.636719 210.265625 C 173.789062 210.089844 172.941406 209.929688 171.996094 209.746094 C 171.996094 212.445312 171.980469 214.960938 172.015625 217.46875 C 172.019531 217.734375 172.28125 218.183594 172.496094 218.234375 C 174.964844 218.851562 177.449219 219.398438 180.066406 220 Z M 169.980469 30.703125 C 169.980469 27.800781 169.980469 25.09375 169.980469 22.320312 C 168.171875 22.691406 166.433594 23.039062 164.699219 23.40625 C 161.941406 23.988281 161.941406 23.996094 161.941406 26.890625 C 161.941406 28.640625 161.941406 30.378906 161.941406 32.230469 C 164.738281 31.699219 167.351562 31.203125 169.980469 30.703125 Z M 161.941406 207.773438 C 161.941406 210.503906 161.925781 212.984375 161.960938 215.460938 C 161.964844 215.683594 162.226562 216.070312 162.425781 216.109375 C 164.914062 216.65625 167.414062 217.15625 169.980469 217.675781 C 169.980469 214.84375 169.980469 212.105469 169.980469 209.289062 C 167.328125 208.789062 164.714844 208.300781 161.941406 207.773438 Z M 151.945312 33.921875 C 154.511719 33.5 156.875 33.128906 159.230469 32.699219 C 159.515625 32.648438 159.964844 32.285156 159.96875 32.050781 C 160.019531 29.539062 160.003906 27.03125 160.003906 24.378906 C 157.355469 24.851562 154.851562 25.289062 152.351562 25.765625 C 152.183594 25.796875 151.964844 26.148438 151.964844 26.359375 C 151.941406 28.835938 151.945312 31.308594 151.945312 33.921875 Z M 149.964844 205.765625 C 147.261719 205.375 144.636719 204.996094 141.964844 204.609375 C 141.964844 207.324219 141.964844 209.941406 141.964844 212.558594 C 144.664062 212.984375 147.285156 213.398438 149.964844 213.820312 C 149.964844 211.101562 149.964844 208.511719 149.964844 205.765625 Z M 121.566406 37.691406 C 124.160156 37.441406 126.679688 37.203125 129.203125 36.929688 C 129.394531 36.910156 129.699219 36.609375 129.699219 36.429688 C 129.734375 34.015625 129.71875 31.59375 129.71875 29.078125 C 126.886719 29.390625 124.21875 29.679688 121.566406 29.96875 C 121.566406 32.585938 121.566406 35.085938 121.566406 37.691406 Z M 119.511719 209.824219 C 119.511719 208.074219 119.511719 206.429688 119.511719 204.78125 C 119.511719 202.195312 119.511719 202.179688 116.976562 201.933594 C 115.140625 201.753906 113.304688 201.628906 111.40625 201.480469 C 111.40625 204.09375 111.40625 206.558594 111.40625 209.140625 C 114.089844 209.371094 116.730469 209.59375 119.511719 209.824219 Z M 119.445312 30.164062 C 116.679688 30.40625 114.046875 30.636719 111.410156 30.863281 C 111.410156 33.453125 111.410156 35.914062 111.410156 38.503906 C 114.121094 38.296875 116.761719 38.09375 119.445312 37.890625 C 119.445312 35.285156 119.445312 32.785156 119.445312 30.164062 Z M 131.746094 211.164062 C 134.441406 211.519531 137.070312 211.875 139.765625 212.230469 C 139.765625 209.535156 139.765625 206.960938 139.765625 204.308594 C 137.074219 203.984375 134.445312 203.671875 131.746094 203.34375 C 131.746094 206.011719 131.746094 208.515625 131.746094 211.164062 Z M 139.765625 27.761719 C 137.039062 28.125 134.386719 28.480469 131.769531 28.835938 C 131.769531 31.496094 131.769531 34.03125 131.769531 36.65625 C 134.496094 36.324219 137.125 36.003906 139.765625 35.683594 C 139.765625 32.988281 139.765625 30.414062 139.765625 27.761719 Z M 101.226562 31.480469 C 101.226562 34.085938 101.226562 36.566406 101.226562 39.113281 C 103.980469 38.953125 106.628906 38.800781 109.269531 38.640625 C 109.269531 36.046875 109.269531 33.578125 109.269531 31.023438 C 106.570312 31.179688 103.949219 31.324219 101.226562 31.480469 Z M 109.285156 201.34375 C 106.511719 201.199219 103.875 201.058594 101.113281 200.921875 C 101.113281 203.34375 101.089844 205.613281 101.148438 207.878906 C 101.160156 208.121094 101.640625 208.519531 101.933594 208.554688 C 103.121094 208.695312 104.316406 208.726562 105.515625 208.785156 C 106.769531 208.851562 108.019531 208.910156 109.285156 208.96875 C 109.285156 206.378906 109.285156 203.921875 109.285156 201.34375 Z M 80.824219 207.96875 C 83.53125 207.96875 86.175781 207.96875 88.871094 207.96875 C 88.871094 205.53125 88.871094 203.074219 88.871094 200.5 C 86.179688 200.5 83.535156 200.5 80.824219 200.5 C 80.824219 202.914062 80.824219 205.335938 80.824219 207.96875 Z M 91.023438 208.226562 C 93.785156 208.226562 96.425781 208.226562 99.058594 208.226562 C 99.058594 205.769531 99.058594 203.339844 99.058594 200.746094 C 96.359375 200.746094 93.714844 200.746094 91.023438 200.746094 C 91.023438 203.144531 91.023438 205.570312 91.023438 208.226562 Z M 88.871094 39.488281 C 88.871094 36.890625 88.871094 34.460938 88.871094 32.039062 C 86.160156 32.039062 83.515625 32.039062 80.855469 32.039062 C 80.855469 34.613281 80.855469 37.058594 80.855469 39.488281 C 83.574219 39.488281 86.191406 39.488281 88.871094 39.488281 Z M 70.585938 39.484375 C 73.285156 39.484375 75.933594 39.484375 78.621094 39.484375 C 78.621094 37.011719 78.621094 34.566406 78.621094 32.015625 C 75.894531 32.015625 73.246094 32.015625 70.585938 32.015625 C 70.585938 34.523438 70.585938 36.953125 70.585938 39.484375 Z M 180.03125 40.03125 C 177.28125 40.546875 174.648438 41.046875 172.089844 41.53125 C 172.089844 44.078125 172.089844 46.449219 172.089844 48.964844 C 174.804688 48.503906 177.410156 48.066406 180.03125 47.621094 C 180.03125 45.070312 180.03125 42.648438 180.03125 40.03125 Z M 171.996094 191.023438 C 171.996094 192.496094 171.980469 193.746094 172 195 C 172.015625 196.128906 171.679688 197.558594 172.230469 198.296875 C 172.726562 198.953125 174.203125 198.875 175.261719 199.078125 C 176.824219 199.386719 178.394531 199.660156 179.984375 199.945312 C 179.984375 197.308594 179.984375 194.859375 179.984375 192.371094 C 177.335938 191.921875 174.761719 191.484375 171.996094 191.023438 Z M 189.984375 194.226562 C 187.339844 193.730469 184.769531 193.25 182.128906 192.753906 C 182.128906 195.355469 182.128906 197.824219 182.128906 200.371094 C 184.746094 200.914062 187.335938 201.449219 189.984375 201.996094 C 189.984375 199.378906 189.984375 196.863281 189.984375 194.226562 Z M 182.148438 47.25 C 184.824219 46.738281 187.421875 46.246094 189.976562 45.761719 C 189.976562 43.074219 189.976562 40.566406 189.976562 37.988281 C 187.324219 38.539062 184.730469 39.085938 182.148438 39.625 C 182.148438 42.203125 182.148438 44.671875 182.148438 47.25 Z M 189.96875 28.246094 C 187.480469 28.816406 185.03125 29.363281 182.601562 29.953125 C 182.398438 30 182.113281 30.285156 182.113281 30.453125 C 182.078125 32.839844 182.09375 35.226562 182.09375 37.695312 C 184.808594 37.113281 187.371094 36.570312 189.976562 36.011719 C 189.96875 33.449219 189.96875 30.941406 189.96875 28.246094 Z M 161.984375 50.503906 C 164.734375 50.089844 167.351562 49.695312 169.953125 49.300781 C 169.953125 46.796875 169.953125 44.386719 169.953125 41.890625 C 167.246094 42.339844 164.636719 42.773438 161.984375 43.210938 C 161.984375 45.648438 161.984375 47.996094 161.984375 50.503906 Z M 169.945312 198.09375 C 169.945312 195.535156 169.945312 193.121094 169.945312 190.691406 C 167.265625 190.285156 164.675781 189.898438 162.003906 189.5 C 162.003906 191.980469 162.003906 194.355469 162.003906 196.785156 C 164.65625 197.21875 167.246094 197.648438 169.945312 198.09375 Z M 169.96875 207.410156 C 169.96875 204.894531 169.96875 202.476562 169.96875 199.996094 C 167.300781 199.546875 164.695312 199.101562 162 198.644531 C 162 201.128906 162 203.503906 162 205.929688 C 164.660156 206.421875 167.269531 206.910156 169.96875 207.410156 Z M 169.980469 32.59375 C 167.488281 33.054688 165.054688 33.488281 162.628906 33.976562 C 162.375 34.023438 161.96875 34.351562 161.964844 34.554688 C 161.921875 36.78125 161.933594 39.003906 161.933594 41.371094 C 164.71875 40.894531 167.335938 40.449219 169.980469 40 C 169.980469 37.484375 169.980469 35.058594 169.980469 32.59375 Z M 129.65625 201.351562 C 129.65625 198.945312 129.65625 196.730469 129.65625 194.445312 C 126.910156 194.203125 124.246094 193.96875 121.566406 193.734375 C 121.566406 196.113281 121.566406 198.300781 121.566406 200.554688 C 124.261719 200.820312 126.90625 201.085938 129.65625 201.351562 Z M 121.535156 191.996094 C 124.300781 192.230469 126.964844 192.453125 129.589844 192.679688 C 129.664062 192.464844 129.710938 192.390625 129.710938 192.316406 C 129.71875 190.980469 129.726562 189.644531 129.730469 188.308594 C 129.734375 185.859375 129.730469 185.859375 127.390625 185.640625 C 127.160156 185.621094 126.933594 185.566406 126.699219 185.550781 C 124.988281 185.429688 123.28125 185.308594 121.53125 185.191406 C 121.535156 187.535156 121.535156 189.683594 121.535156 191.996094 Z M 40.066406 56.746094 C 40.066406 59.070312 40.066406 61.25 40.066406 63.539062 C 42.769531 63.691406 45.414062 63.824219 48.089844 63.976562 C 48.089844 61.644531 48.089844 59.460938 48.089844 57.195312 C 45.386719 57.046875 42.75 56.894531 40.066406 56.746094 Z M 40.058594 191.835938 C 42.789062 191.644531 45.425781 191.453125 48.09375 191.269531 C 48.09375 188.976562 48.09375 186.796875 48.09375 184.511719 C 45.390625 184.683594 42.75 184.851562 40.058594 185.023438 C 40.058594 187.304688 40.058594 189.488281 40.058594 191.835938 Z M 40.003906 74.046875 C 40.003906 76.011719 39.988281 78.078125 40.03125 80.148438 C 40.035156 80.335938 40.421875 80.660156 40.628906 80.664062 C 43.089844 80.699219 45.539062 80.683594 48.070312 80.683594 C 48.070312 78.640625 48.070312 76.433594 48.070312 74.046875 C 45.363281 74.046875 42.75 74.046875 40.003906 74.046875 Z M 40.066406 89.285156 C 42.785156 89.285156 45.398438 89.285156 48.078125 89.285156 C 48.078125 87.125 48.078125 84.910156 48.078125 82.546875 C 45.375 82.546875 42.753906 82.546875 40.066406 82.546875 C 40.066406 84.664062 40.066406 86.851562 40.066406 89.285156 Z M 48.105469 176.015625 C 45.351562 176.171875 42.710938 176.324219 40.070312 176.46875 C 40.070312 178.808594 40.070312 180.996094 40.070312 183.273438 C 42.785156 183.105469 45.421875 182.945312 48.105469 182.78125 C 48.105469 180.511719 48.105469 178.359375 48.105469 176.015625 Z M 48.105469 99.570312 C 45.355469 99.570312 42.75 99.570312 40.078125 99.570312 C 40.078125 101.789062 40.078125 104 40.078125 106.304688 C 42.804688 106.304688 45.445312 106.304688 48.105469 106.304688 C 48.105469 104.050781 48.105469 101.90625 48.105469 99.570312 Z M 48.113281 133.75 C 45.359375 133.75 42.71875 133.75 40.085938 133.75 C 40.085938 136.066406 40.085938 138.273438 40.085938 140.34375 C 42.808594 140.34375 45.449219 140.34375 48.113281 140.34375 C 48.113281 138.050781 48.113281 135.933594 48.113281 133.75 Z M 40.058594 148.886719 C 42.769531 148.886719 45.410156 148.886719 48.089844 148.886719 C 48.089844 146.535156 48.089844 144.359375 48.089844 142.25 C 45.378906 142.25 42.738281 142.25 40.058594 142.25 C 40.058594 144.589844 40.058594 146.773438 40.058594 148.886719 Z M 88.898438 49.683594 C 86.144531 49.683594 83.496094 49.683594 80.855469 49.683594 C 80.855469 51.960938 80.855469 54.128906 80.855469 56.238281 C 83.59375 56.238281 86.234375 56.238281 88.898438 56.238281 C 88.898438 53.996094 88.898438 51.878906 88.898438 49.683594 Z M 78.640625 49.664062 C 75.914062 49.664062 73.269531 49.664062 70.585938 49.664062 C 70.585938 51.878906 70.585938 54.023438 70.585938 56.269531 C 73.28125 56.269531 75.929688 56.269531 78.640625 56.269531 C 78.640625 54.109375 78.640625 51.960938 78.640625 49.664062 Z M 70.605469 98.136719 C 73.316406 98.136719 75.953125 98.136719 78.625 98.136719 C 78.625 95.898438 78.625 93.734375 78.625 91.570312 C 75.898438 91.570312 73.253906 91.570312 70.605469 91.570312 C 70.605469 93.800781 70.605469 95.945312 70.605469 98.136719 Z M 70.589844 148.425781 C 73.355469 148.425781 76 148.425781 78.644531 148.425781 C 78.644531 146.164062 78.644531 144.015625 78.644531 141.855469 C 75.941406 141.855469 73.296875 141.855469 70.589844 141.855469 C 70.589844 144.101562 70.589844 146.246094 70.589844 148.425781 Z M 68.429688 108.273438 C 65.695312 108.273438 63.050781 108.273438 60.371094 108.273438 C 60.371094 110.5 60.371094 112.648438 60.371094 114.890625 C 63.078125 114.890625 65.730469 114.890625 68.429688 114.890625 C 68.429688 112.691406 68.429688 110.535156 68.429688 108.273438 Z M 70.628906 108.328125 C 70.628906 110.570312 70.628906 112.738281 70.628906 114.890625 C 73.363281 114.890625 76.011719 114.890625 78.644531 114.890625 C 78.644531 112.660156 78.644531 110.511719 78.644531 108.328125 C 75.929688 108.328125 73.285156 108.328125 70.628906 108.328125 Z M 50.214844 106.386719 C 52.910156 106.386719 55.554688 106.386719 58.203125 106.386719 C 58.203125 104.191406 58.203125 102.035156 58.203125 99.769531 C 55.515625 99.769531 52.875 99.769531 50.214844 99.769531 C 50.214844 101.96875 50.214844 104.121094 50.214844 106.386719 Z M 68.414062 125.136719 C 65.675781 125.136719 63.03125 125.136719 60.355469 125.136719 C 60.355469 127.375 60.355469 129.523438 60.355469 131.726562 C 63.050781 131.726562 65.703125 131.726562 68.414062 131.726562 C 68.414062 129.503906 68.414062 127.355469 68.414062 125.136719 Z M 78.679688 125.113281 C 75.925781 125.113281 73.28125 125.113281 70.636719 125.113281 C 70.636719 127.359375 70.636719 129.53125 70.636719 131.671875 C 73.375 131.671875 76.015625 131.671875 78.679688 131.671875 C 78.679688 129.464844 78.679688 127.351562 78.679688 125.113281 Z M 58.226562 133.636719 C 55.46875 133.636719 52.84375 133.636719 50.21875 133.636719 C 50.21875 135.925781 50.21875 138.070312 50.21875 140.210938 C 52.914062 140.210938 55.554688 140.210938 58.226562 140.210938 C 58.226562 137.953125 58.226562 135.804688 58.226562 133.636719 Z M 58.195312 123.355469 C 58.195312 121.105469 58.195312 118.929688 58.195312 116.714844 C 55.503906 116.714844 52.875 116.714844 50.238281 116.714844 C 50.238281 118.96875 50.238281 121.144531 50.238281 123.355469 C 52.945312 123.355469 55.550781 123.355469 58.195312 123.355469 Z M 50.214844 148.648438 C 52.910156 148.648438 55.546875 148.648438 58.195312 148.648438 C 58.195312 146.34375 58.195312 144.199219 58.195312 142.105469 C 55.496094 142.105469 52.859375 142.105469 50.214844 142.105469 C 50.214844 144.40625 50.214844 146.550781 50.214844 148.648438 Z M 50.214844 191.148438 C 52.914062 191.023438 55.554688 190.898438 58.191406 190.769531 C 58.191406 188.476562 58.191406 186.324219 58.191406 184.039062 C 55.488281 184.160156 52.851562 184.285156 50.214844 184.40625 C 50.214844 186.726562 50.214844 188.878906 50.214844 191.148438 Z M 68.441406 167.148438 C 65.675781 167.148438 63.03125 167.148438 60.398438 167.148438 C 60.398438 169.464844 60.398438 171.640625 60.398438 173.679688 C 63.136719 173.679688 65.78125 173.679688 68.441406 173.679688 C 68.441406 171.386719 68.441406 169.269531 68.441406 167.148438 Z M 50.210938 64.175781 C 52.925781 64.175781 55.558594 64.175781 58.164062 64.175781 C 58.164062 62.046875 58.164062 59.863281 58.164062 57.519531 C 55.476562 57.519531 52.875 57.519531 50.210938 57.519531 C 50.210938 59.601562 50.210938 61.75 50.210938 64.175781 Z M 60.363281 156.894531 C 63.128906 156.894531 65.769531 156.894531 68.414062 156.894531 C 68.414062 154.601562 68.414062 152.460938 68.414062 150.34375 C 65.703125 150.34375 63.058594 150.34375 60.363281 150.34375 C 60.363281 152.609375 60.363281 154.75 60.363281 156.894531 Z M 58.195312 158.953125 C 55.5 158.953125 52.871094 158.953125 50.226562 158.953125 C 50.226562 161.308594 50.226562 163.488281 50.226562 165.539062 C 52.929688 165.539062 55.566406 165.539062 58.195312 165.539062 C 58.195312 163.191406 58.195312 161.046875 58.195312 158.953125 Z M 80.816406 190.328125 C 83.601562 190.328125 86.238281 190.328125 88.855469 190.328125 C 88.855469 188.105469 88.855469 185.964844 88.855469 183.746094 C 86.136719 183.746094 83.488281 183.746094 80.816406 183.746094 C 80.816406 185.949219 80.816406 188.101562 80.816406 190.328125 Z M 70.613281 183.753906 C 70.613281 186.070312 70.613281 188.203125 70.613281 190.320312 C 73.339844 190.320312 75.984375 190.320312 78.65625 190.320312 C 78.65625 188.078125 78.65625 185.933594 78.65625 183.753906 C 75.964844 183.753906 73.320312 183.753906 70.613281 183.753906 Z M 58.195312 174.039062 C 58.195312 171.628906 58.195312 169.488281 58.195312 167.453125 C 55.5 167.453125 52.863281 167.453125 50.214844 167.453125 C 50.214844 169.804688 50.214844 171.945312 50.214844 174.039062 C 52.890625 174.039062 55.496094 174.039062 58.195312 174.039062 Z M 60.386719 74.695312 C 60.386719 76.890625 60.386719 79.03125 60.386719 81.296875 C 63.105469 81.296875 65.746094 81.296875 68.429688 81.296875 C 68.429688 79.125 68.429688 76.980469 68.429688 74.695312 C 65.738281 74.695312 63.089844 74.695312 60.386719 74.695312 Z M 50.199219 72.589844 C 52.921875 72.589844 55.523438 72.589844 58.179688 72.589844 C 58.179688 70.476562 58.179688 68.304688 58.179688 65.976562 C 55.476562 65.976562 52.84375 65.976562 50.199219 65.976562 C 50.199219 68.136719 50.199219 70.246094 50.199219 72.589844 Z M 58.164062 97.960938 C 58.164062 95.726562 58.164062 93.554688 58.164062 91.28125 C 55.464844 91.28125 52.855469 91.28125 50.25 91.28125 C 50.25 93.53125 50.25 95.703125 50.25 97.960938 C 52.921875 97.960938 55.5 97.960938 58.164062 97.960938 Z M 68.449219 133.546875 C 65.695312 133.546875 63.046875 133.546875 60.359375 133.546875 C 60.359375 135.785156 60.359375 137.929688 60.359375 140.070312 C 63.085938 140.070312 65.75 140.070312 68.449219 140.070312 C 68.449219 137.824219 68.449219 135.714844 68.449219 133.546875 Z M 60.390625 57.886719 C 60.390625 60.019531 60.390625 62.195312 60.390625 64.5 C 63.109375 64.5 65.746094 64.5 68.433594 64.5 C 68.433594 62.351562 68.433594 60.203125 68.433594 57.886719 C 65.761719 57.886719 63.113281 57.886719 60.390625 57.886719 Z M 50.253906 150.484375 C 50.253906 152.886719 50.253906 155.058594 50.253906 157.128906 C 52.960938 157.128906 55.566406 157.128906 58.191406 157.128906 C 58.191406 154.785156 58.191406 152.613281 58.191406 150.484375 C 55.511719 150.484375 52.90625 150.484375 50.253906 150.484375 Z M 60.363281 190.484375 C 63.121094 190.484375 65.765625 190.484375 68.414062 190.484375 C 68.414062 188.164062 68.414062 186.019531 68.414062 183.953125 C 65.703125 183.953125 63.066406 183.953125 60.363281 183.953125 C 60.363281 186.25 60.363281 188.394531 60.363281 190.484375 Z M 68.449219 192.351562 C 65.699219 192.351562 63.054688 192.351562 60.398438 192.351562 C 60.398438 194.699219 60.398438 196.878906 60.398438 198.921875 C 63.140625 198.921875 65.78125 198.921875 68.449219 198.921875 C 68.449219 196.59375 68.449219 194.476562 68.449219 192.351562 Z M 60.363281 182.09375 C 63.09375 182.09375 65.765625 182.09375 68.40625 182.09375 C 68.40625 179.769531 68.40625 177.625 68.40625 175.546875 C 65.683594 175.546875 63.046875 175.546875 60.363281 175.546875 C 60.363281 177.855469 60.363281 180 60.363281 182.09375 Z M 78.648438 83.175781 C 75.910156 83.175781 73.269531 83.175781 70.601562 83.175781 C 70.601562 85.378906 70.601562 87.519531 70.601562 89.761719 C 73.304688 89.761719 75.949219 89.761719 78.648438 89.761719 C 78.648438 87.601562 78.648438 85.449219 78.648438 83.175781 Z M 68.40625 89.695312 C 68.40625 87.445312 68.40625 85.308594 68.40625 83.074219 C 65.683594 83.074219 63.039062 83.074219 60.40625 83.074219 C 60.40625 85.285156 60.40625 87.460938 60.40625 89.695312 C 63.121094 89.695312 65.730469 89.695312 68.40625 89.695312 Z M 70.605469 116.710938 C 70.605469 118.960938 70.605469 121.09375 70.605469 123.261719 C 73.320312 123.261719 75.960938 123.261719 78.648438 123.261719 C 78.648438 121.058594 78.648438 118.921875 78.648438 116.710938 C 75.960938 116.710938 73.320312 116.710938 70.605469 116.710938 Z M 80.839844 192.136719 C 80.839844 194.351562 80.839844 196.484375 80.839844 198.703125 C 83.566406 198.703125 86.203125 198.703125 88.855469 198.703125 C 88.855469 196.480469 88.855469 194.335938 88.855469 192.136719 C 86.164062 192.136719 83.550781 192.136719 80.839844 192.136719 Z M 80.808594 47.820312 C 83.59375 47.820312 86.246094 47.820312 88.84375 47.820312 C 88.84375 45.566406 88.84375 43.421875 88.84375 41.339844 C 86.105469 41.339844 83.453125 41.339844 80.808594 41.339844 C 80.808594 43.566406 80.808594 45.679688 80.808594 47.820312 Z M 68.40625 106.46875 C 68.40625 104.265625 68.40625 102.089844 68.40625 99.886719 C 65.683594 99.886719 63.046875 99.886719 60.371094 99.886719 C 60.371094 102.109375 60.371094 104.253906 60.371094 106.46875 C 63.066406 106.46875 65.714844 106.46875 68.40625 106.46875 Z M 70.609375 150.25 C 70.609375 152.519531 70.609375 154.664062 70.609375 156.800781 C 73.335938 156.800781 75.984375 156.800781 78.636719 156.800781 C 78.636719 154.566406 78.636719 152.421875 78.636719 150.25 C 75.945312 150.25 73.320312 150.25 70.609375 150.25 Z M 70.609375 150.25 "/>
<path style=" stroke:none;fill-rule:nonzero;fill:rgb(12.941176%,58.823529%,95.294118%);fill-opacity:1;" d="M 171.996094 30.296875 C 171.996094 27.546875 171.976562 24.996094 172.023438 22.445312 C 172.03125 22.191406 172.421875 21.785156 172.691406 21.714844 C 175.085938 21.113281 177.5 20.585938 180.058594 20 C 180.058594 22.753906 180.070312 25.449219 180.039062 28.140625 C 180.039062 28.324219 179.753906 28.625 179.554688 28.664062 C 177.113281 29.214844 174.671875 29.726562 171.996094 30.296875 Z M 180.066406 220 C 177.453125 219.398438 174.96875 218.851562 172.5 218.238281 C 172.285156 218.191406 172.023438 217.738281 172.019531 217.476562 C 171.980469 214.960938 172 212.449219 172 209.75 C 172.949219 209.933594 173.796875 210.101562 174.640625 210.269531 C 176.191406 210.589844 177.746094 210.898438 179.285156 211.273438 C 179.578125 211.351562 180.03125 211.695312 180.035156 211.925781 C 180.085938 214.585938 180.066406 217.25 180.066406 220 Z M 169.980469 30.703125 C 167.351562 31.203125 164.746094 31.699219 161.941406 32.234375 C 161.941406 30.386719 161.941406 28.644531 161.941406 26.894531 C 161.941406 24 161.941406 23.996094 164.699219 23.410156 C 166.433594 23.039062 168.175781 22.695312 169.980469 22.324219 C 169.980469 25.101562 169.980469 27.800781 169.980469 30.703125 Z M 161.941406 207.773438 C 164.71875 208.300781 167.328125 208.789062 169.980469 209.289062 C 169.980469 212.105469 169.980469 214.839844 169.980469 217.675781 C 167.414062 217.15625 164.914062 216.660156 162.425781 216.109375 C 162.226562 216.066406 161.964844 215.683594 161.960938 215.460938 C 161.929688 212.984375 161.941406 210.503906 161.941406 207.773438 Z M 151.945312 33.921875 C 151.945312 31.304688 151.933594 28.835938 151.960938 26.363281 C 151.964844 26.15625 152.179688 25.804688 152.34375 25.769531 C 154.84375 25.289062 157.351562 24.855469 160 24.386719 C 160 27.035156 160.019531 29.546875 159.964844 32.054688 C 159.960938 32.285156 159.511719 32.648438 159.226562 32.703125 C 156.878906 33.128906 154.511719 33.5 151.945312 33.921875 Z M 149.964844 205.765625 C 149.964844 208.511719 149.964844 211.101562 149.964844 213.820312 C 147.285156 213.398438 144.671875 212.984375 141.964844 212.558594 C 141.964844 209.945312 141.964844 207.328125 141.964844 204.609375 C 144.636719 204.996094 147.261719 205.375 149.964844 205.765625 Z M 121.566406 37.691406 C 121.566406 35.078125 121.566406 32.585938 121.566406 29.96875 C 124.226562 29.679688 126.886719 29.386719 129.71875 29.078125 C 129.71875 31.59375 129.734375 34.015625 129.699219 36.429688 C 129.695312 36.605469 129.390625 36.910156 129.203125 36.929688 C 126.683594 37.210938 124.160156 37.445312 121.566406 37.691406 Z M 119.511719 209.824219 C 116.734375 209.589844 114.09375 209.371094 111.398438 209.140625 C 111.398438 206.554688 111.398438 204.09375 111.398438 201.480469 C 113.300781 201.628906 115.136719 201.761719 116.96875 201.933594 C 119.511719 202.179688 119.503906 202.195312 119.503906 204.78125 C 119.511719 206.429688 119.511719 208.074219 119.511719 209.824219 Z M 119.445312 30.164062 C 119.445312 32.785156 119.445312 35.285156 119.445312 37.886719 C 116.753906 38.089844 114.121094 38.296875 111.410156 38.5 C 111.410156 35.914062 111.410156 33.449219 111.410156 30.859375 C 114.046875 30.636719 116.679688 30.40625 119.445312 30.164062 Z M 131.746094 211.164062 C 131.746094 208.515625 131.746094 206.011719 131.746094 203.34375 C 134.441406 203.671875 137.074219 203.988281 139.765625 204.308594 C 139.765625 206.960938 139.765625 209.535156 139.765625 212.230469 C 137.070312 211.875 134.433594 211.519531 131.746094 211.164062 Z M 139.765625 27.761719 C 139.765625 30.410156 139.765625 32.988281 139.765625 35.683594 C 137.125 36.003906 134.488281 36.324219 131.769531 36.65625 C 131.769531 34.03125 131.769531 31.496094 131.769531 28.835938 C 134.386719 28.484375 137.035156 28.125 139.765625 27.761719 Z M 101.226562 31.480469 C 103.949219 31.328125 106.570312 31.179688 109.269531 31.03125 C 109.269531 33.578125 109.269531 36.046875 109.269531 38.644531 C 106.628906 38.800781 103.980469 38.960938 101.226562 39.121094 C 101.226562 36.566406 101.226562 34.085938 101.226562 31.480469 Z M 109.285156 201.34375 C 109.285156 203.925781 109.285156 206.378906 109.285156 208.96875 C 108.019531 208.910156 106.765625 208.851562 105.515625 208.785156 C 104.320312 208.71875 103.125 208.695312 101.933594 208.554688 C 101.640625 208.519531 101.15625 208.125 101.148438 207.878906 C 101.089844 205.613281 101.113281 203.34375 101.113281 200.921875 C 103.875 201.058594 106.515625 201.195312 109.285156 201.34375 Z M 80.824219 207.96875 C 80.824219 205.335938 80.824219 202.921875 80.824219 200.5 C 83.539062 200.5 86.179688 200.5 88.871094 200.5 C 88.871094 203.074219 88.871094 205.53125 88.871094 207.96875 C 86.171875 207.96875 83.53125 207.96875 80.824219 207.96875 Z M 91.023438 208.226562 C 91.023438 205.570312 91.023438 203.140625 91.023438 200.746094 C 93.710938 200.746094 96.351562 200.746094 99.058594 200.746094 C 99.058594 203.339844 99.058594 205.761719 99.058594 208.226562 C 96.425781 208.226562 93.785156 208.226562 91.023438 208.226562 Z M 88.871094 39.488281 C 86.191406 39.488281 83.570312 39.488281 80.855469 39.488281 C 80.855469 37.066406 80.855469 34.613281 80.855469 32.039062 C 83.515625 32.039062 86.160156 32.039062 88.871094 32.039062 C 88.871094 34.464844 88.871094 36.890625 88.871094 39.488281 Z M 70.585938 39.484375 C 70.585938 36.960938 70.585938 34.53125 70.585938 32.015625 C 73.253906 32.015625 75.898438 32.015625 78.621094 32.015625 C 78.621094 34.558594 78.621094 37.011719 78.621094 39.484375 C 75.941406 39.484375 73.289062 39.484375 70.585938 39.484375 Z M 180.03125 40.03125 C 180.03125 42.644531 180.03125 45.074219 180.03125 47.621094 C 177.410156 48.066406 174.804688 48.503906 172.089844 48.964844 C 172.089844 46.449219 172.089844 44.078125 172.089844 41.53125 C 174.644531 41.046875 177.28125 40.550781 180.03125 40.03125 Z M 171.996094 191.023438 C 174.761719 191.488281 177.335938 191.921875 179.984375 192.371094 C 179.984375 194.855469 179.984375 197.308594 179.984375 199.945312 C 178.394531 199.65625 176.824219 199.386719 175.261719 199.078125 C 174.203125 198.875 172.726562 198.960938 172.230469 198.296875 C 171.679688 197.566406 172.019531 196.128906 172 195 C 171.980469 193.746094 171.996094 192.488281 171.996094 191.023438 Z M 189.984375 194.226562 C 189.984375 196.863281 189.984375 199.375 189.984375 202.003906 C 187.339844 201.453125 184.75 200.921875 182.128906 200.378906 C 182.128906 197.828125 182.128906 195.363281 182.128906 192.765625 C 184.769531 193.25 187.339844 193.730469 189.984375 194.226562 Z M 182.148438 47.25 C 182.148438 44.664062 182.148438 42.199219 182.148438 39.625 C 184.730469 39.085938 187.324219 38.539062 189.976562 37.988281 C 189.976562 40.570312 189.976562 43.074219 189.976562 45.761719 C 187.421875 46.25 184.824219 46.746094 182.148438 47.25 Z M 189.96875 28.246094 C 189.96875 30.941406 189.96875 33.449219 189.96875 36.011719 C 187.363281 36.566406 184.804688 37.113281 182.089844 37.695312 C 182.089844 35.226562 182.078125 32.84375 182.109375 30.453125 C 182.113281 30.273438 182.394531 30 182.59375 29.949219 C 185.03125 29.363281 187.476562 28.816406 189.96875 28.246094 Z M 161.984375 50.503906 C 161.984375 47.988281 161.984375 45.648438 161.984375 43.21875 C 164.628906 42.78125 167.246094 42.351562 169.953125 41.898438 C 169.953125 44.390625 169.953125 46.800781 169.953125 49.308594 C 167.351562 49.695312 164.734375 50.089844 161.984375 50.503906 Z M 169.945312 198.09375 C 167.25 197.644531 164.65625 197.21875 162.003906 196.78125 C 162.003906 194.351562 162.003906 191.96875 162.003906 189.496094 C 164.675781 189.894531 167.265625 190.285156 169.945312 190.683594 C 169.945312 193.121094 169.945312 195.539062 169.945312 198.09375 Z M 169.96875 207.410156 C 167.269531 206.90625 164.65625 206.425781 162 205.925781 C 162 203.503906 162 201.125 162 198.640625 C 164.691406 199.09375 167.300781 199.539062 169.96875 199.988281 C 169.96875 202.476562 169.96875 204.890625 169.96875 207.410156 Z M 169.980469 32.59375 C 169.980469 35.058594 169.980469 37.480469 169.980469 40 C 167.335938 40.449219 164.71875 40.894531 161.941406 41.371094 C 161.941406 39.003906 161.925781 36.773438 161.96875 34.554688 C 161.976562 34.351562 162.375 34.023438 162.636719 33.976562 C 165.058594 33.484375 167.496094 33.050781 169.980469 32.59375 Z M 129.65625 201.351562 C 126.90625 201.078125 124.265625 200.824219 121.566406 200.566406 C 121.566406 198.308594 121.566406 196.121094 121.566406 193.746094 C 124.246094 193.980469 126.914062 194.214844 129.65625 194.453125 C 129.65625 196.726562 129.65625 198.945312 129.65625 201.351562 Z M 121.535156 191.996094 C 121.535156 189.683594 121.535156 187.535156 121.535156 185.183594 C 123.285156 185.304688 124.996094 185.425781 126.703125 185.546875 C 126.933594 185.558594 127.160156 185.613281 127.394531 185.636719 C 129.734375 185.855469 129.738281 185.855469 129.734375 188.304688 C 129.734375 189.640625 129.726562 190.976562 129.714844 192.308594 C 129.714844 192.386719 129.671875 192.453125 129.59375 192.675781 C 126.964844 192.453125 124.300781 192.230469 121.535156 191.996094 Z M 40.066406 56.746094 C 42.75 56.894531 45.386719 57.046875 48.089844 57.195312 C 48.089844 59.453125 48.089844 61.644531 48.089844 63.976562 C 45.410156 63.828125 42.769531 63.691406 40.066406 63.539062 C 40.066406 61.25 40.066406 59.070312 40.066406 56.746094 Z M 40.058594 191.835938 C 40.058594 189.488281 40.058594 187.304688 40.058594 185.019531 C 42.753906 184.851562 45.390625 184.679688 48.09375 184.503906 C 48.09375 186.789062 48.09375 188.96875 48.09375 191.265625 C 45.425781 191.453125 42.789062 191.644531 40.058594 191.835938 Z M 40.003906 74.046875 C 42.753906 74.046875 45.363281 74.046875 48.070312 74.046875 C 48.070312 76.433594 48.070312 78.644531 48.070312 80.683594 C 45.550781 80.683594 43.089844 80.699219 40.628906 80.664062 C 40.421875 80.660156 40.035156 80.335938 40.03125 80.148438 C 39.988281 78.078125 40.003906 76.011719 40.003906 74.046875 Z M 40.066406 89.285156 C 40.066406 86.851562 40.066406 84.664062 40.066406 82.546875 C 42.753906 82.546875 45.375 82.546875 48.078125 82.546875 C 48.078125 84.90625 48.078125 87.125 48.078125 89.285156 C 45.398438 89.285156 42.78125 89.285156 40.066406 89.285156 Z M 48.105469 176.015625 C 48.105469 178.359375 48.105469 180.503906 48.105469 182.78125 C 45.421875 182.945312 42.785156 183.105469 40.070312 183.273438 C 40.070312 180.996094 40.070312 178.808594 40.070312 176.46875 C 42.710938 176.324219 45.34375 176.175781 48.105469 176.015625 Z M 48.105469 99.570312 C 48.105469 101.90625 48.105469 104.054688 48.105469 106.304688 C 45.445312 106.304688 42.804688 106.304688 40.078125 106.304688 C 40.078125 104 40.078125 101.789062 40.078125 99.570312 C 42.75 99.570312 45.355469 99.570312 48.105469 99.570312 Z M 48.113281 133.75 C 48.113281 135.933594 48.113281 138.046875 48.113281 140.34375 C 45.449219 140.34375 42.816406 140.34375 40.085938 140.34375 C 40.085938 138.269531 40.085938 136.058594 40.085938 133.75 C 42.71875 133.75 45.359375 133.75 48.113281 133.75 Z M 40.058594 148.886719 C 40.058594 146.769531 40.058594 144.589844 40.058594 142.25 C 42.738281 142.25 45.378906 142.25 48.089844 142.25 C 48.089844 144.359375 48.089844 146.535156 48.089844 148.886719 C 45.410156 148.886719 42.769531 148.886719 40.058594 148.886719 Z M 88.898438 49.683594 C 88.898438 51.878906 88.898438 54 88.898438 56.238281 C 86.234375 56.238281 83.59375 56.238281 80.855469 56.238281 C 80.855469 54.128906 80.855469 51.960938 80.855469 49.683594 C 83.5 49.683594 86.144531 49.683594 88.898438 49.683594 Z M 78.640625 49.664062 C 78.640625 51.964844 78.640625 54.109375 78.640625 56.269531 C 75.929688 56.269531 73.289062 56.269531 70.585938 56.269531 C 70.585938 54.023438 70.585938 51.886719 70.585938 49.664062 C 73.269531 49.664062 75.914062 49.664062 78.640625 49.664062 Z M 70.605469 98.136719 C 70.605469 95.945312 70.605469 93.800781 70.605469 91.570312 C 73.253906 91.570312 75.894531 91.570312 78.625 91.570312 C 78.625 93.734375 78.625 95.898438 78.625 98.136719 C 75.953125 98.136719 73.316406 98.136719 70.605469 98.136719 Z M 70.589844 148.425781 C 70.589844 146.238281 70.589844 144.09375 70.589844 141.855469 C 73.289062 141.855469 75.933594 141.855469 78.644531 141.855469 C 78.644531 144.015625 78.644531 146.164062 78.644531 148.425781 C 76 148.425781 73.359375 148.425781 70.589844 148.425781 Z M 68.429688 108.273438 C 68.429688 110.535156 68.429688 112.691406 68.429688 114.890625 C 65.734375 114.890625 63.078125 114.890625 60.371094 114.890625 C 60.371094 112.648438 60.371094 110.503906 60.371094 108.273438 C 63.046875 108.273438 65.695312 108.273438 68.429688 108.273438 Z M 70.628906 108.328125 C 73.285156 108.328125 75.929688 108.328125 78.644531 108.328125 C 78.644531 110.515625 78.644531 112.660156 78.644531 114.890625 C 76.011719 114.890625 73.371094 114.890625 70.628906 114.890625 C 70.628906 112.738281 70.628906 110.570312 70.628906 108.328125 Z M 50.214844 106.386719 C 50.214844 104.121094 50.214844 101.96875 50.214844 99.769531 C 52.875 99.769531 55.515625 99.769531 58.203125 99.769531 C 58.203125 102.039062 58.203125 104.191406 58.203125 106.386719 C 55.554688 106.386719 52.914062 106.386719 50.214844 106.386719 Z M 68.414062 125.136719 C 68.414062 127.355469 68.414062 129.503906 68.414062 131.726562 C 65.703125 131.726562 63.054688 131.726562 60.355469 131.726562 C 60.355469 129.523438 60.355469 127.375 60.355469 125.136719 C 63.03125 125.136719 65.679688 125.136719 68.414062 125.136719 Z M 78.679688 125.113281 C 78.679688 127.351562 78.679688 129.464844 78.679688 131.671875 C 76.015625 131.671875 73.375 131.671875 70.636719 131.671875 C 70.636719 129.523438 70.636719 127.355469 70.636719 125.113281 C 73.273438 125.113281 75.925781 125.113281 78.679688 125.113281 Z M 58.226562 133.636719 C 58.226562 135.804688 58.226562 137.953125 58.226562 140.210938 C 55.554688 140.210938 52.925781 140.210938 50.21875 140.210938 C 50.21875 138.070312 50.21875 135.925781 50.21875 133.636719 C 52.839844 133.636719 55.46875 133.636719 58.226562 133.636719 Z M 58.195312 123.355469 C 55.546875 123.355469 52.933594 123.355469 50.238281 123.355469 C 50.238281 121.144531 50.238281 118.976562 50.238281 116.714844 C 52.875 116.714844 55.503906 116.714844 58.195312 116.714844 C 58.195312 118.929688 58.195312 121.113281 58.195312 123.355469 Z M 50.214844 148.648438 C 50.214844 146.550781 50.214844 144.398438 50.214844 142.105469 C 52.855469 142.105469 55.496094 142.105469 58.195312 142.105469 C 58.195312 144.195312 58.195312 146.339844 58.195312 148.648438 C 55.546875 148.648438 52.910156 148.648438 50.214844 148.648438 Z M 50.214844 191.148438 C 50.214844 188.871094 50.214844 186.726562 50.214844 184.40625 C 52.855469 184.285156 55.488281 184.164062 58.191406 184.039062 C 58.191406 186.324219 58.191406 188.476562 58.191406 190.769531 C 55.554688 190.898438 52.921875 191.023438 50.214844 191.148438 Z M 68.441406 167.148438 C 68.441406 169.265625 68.441406 171.378906 68.441406 173.679688 C 65.773438 173.679688 63.136719 173.679688 60.398438 173.679688 C 60.398438 171.644531 60.398438 169.464844 60.398438 167.148438 C 63.03125 167.148438 65.675781 167.148438 68.441406 167.148438 Z M 50.210938 64.175781 C 50.210938 61.75 50.210938 59.601562 50.210938 57.519531 C 52.875 57.519531 55.476562 57.519531 58.164062 57.519531 C 58.164062 59.871094 58.164062 62.046875 58.164062 64.175781 C 55.558594 64.175781 52.929688 64.175781 50.210938 64.175781 Z M 60.363281 156.894531 C 60.363281 154.75 60.363281 152.609375 60.363281 150.34375 C 63.058594 150.34375 65.703125 150.34375 68.414062 150.34375 C 68.414062 152.460938 68.414062 154.59375 68.414062 156.894531 C 65.765625 156.894531 63.128906 156.894531 60.363281 156.894531 Z M 58.195312 158.953125 C 58.195312 161.039062 58.195312 163.183594 58.195312 165.539062 C 55.566406 165.539062 52.933594 165.539062 50.226562 165.539062 C 50.226562 163.488281 50.226562 161.316406 50.226562 158.953125 C 52.863281 158.953125 55.5 158.953125 58.195312 158.953125 Z M 80.816406 190.328125 C 80.816406 188.09375 80.816406 185.949219 80.816406 183.746094 C 83.488281 183.746094 86.136719 183.746094 88.855469 183.746094 C 88.855469 185.964844 88.855469 188.105469 88.855469 190.328125 C 86.238281 190.328125 83.605469 190.328125 80.816406 190.328125 Z M 70.613281 183.753906 C 73.320312 183.753906 75.964844 183.753906 78.65625 183.753906 C 78.65625 185.933594 78.65625 188.074219 78.65625 190.320312 C 75.984375 190.320312 73.339844 190.320312 70.613281 190.320312 C 70.613281 188.214844 70.613281 186.074219 70.613281 183.753906 Z M 58.195312 174.039062 C 55.5 174.039062 52.886719 174.039062 50.214844 174.039062 C 50.214844 171.949219 50.214844 169.800781 50.214844 167.453125 C 52.859375 167.453125 55.5 167.453125 58.195312 167.453125 C 58.195312 169.484375 58.195312 171.628906 58.195312 174.039062 Z M 60.386719 74.695312 C 63.089844 74.695312 65.734375 74.695312 68.429688 74.695312 C 68.429688 76.976562 68.429688 79.121094 68.429688 81.296875 C 65.746094 81.296875 63.105469 81.296875 60.386719 81.296875 C 60.386719 79.035156 60.386719 76.890625 60.386719 74.695312 Z M 50.199219 72.589844 C 50.199219 70.246094 50.199219 68.136719 50.199219 65.976562 C 52.84375 65.976562 55.476562 65.976562 58.179688 65.976562 C 58.179688 68.300781 58.179688 70.46875 58.179688 72.589844 C 55.523438 72.589844 52.921875 72.589844 50.199219 72.589844 Z M 58.164062 97.960938 C 55.503906 97.960938 52.921875 97.960938 50.25 97.960938 C 50.25 95.710938 50.25 93.53125 50.25 91.28125 C 52.859375 91.28125 55.464844 91.28125 58.164062 91.28125 C 58.164062 93.550781 58.164062 95.726562 58.164062 97.960938 Z M 68.449219 133.546875 C 68.449219 135.714844 68.449219 137.824219 68.449219 140.070312 C 65.753906 140.070312 63.085938 140.070312 60.359375 140.070312 C 60.359375 137.925781 60.359375 135.785156 60.359375 133.546875 C 63.046875 133.546875 65.683594 133.546875 68.449219 133.546875 Z M 60.390625 57.886719 C 63.113281 57.886719 65.761719 57.886719 68.433594 57.886719 C 68.433594 60.199219 68.433594 62.34375 68.433594 64.5 C 65.75 64.5 63.109375 64.5 60.390625 64.5 C 60.390625 62.195312 60.390625 60.019531 60.390625 57.886719 Z M 50.253906 150.484375 C 52.90625 150.484375 55.515625 150.484375 58.191406 150.484375 C 58.191406 152.609375 58.191406 154.785156 58.191406 157.128906 C 55.570312 157.128906 52.960938 157.128906 50.253906 157.128906 C 50.253906 155.054688 50.253906 152.878906 50.253906 150.484375 Z M 60.363281 190.484375 C 60.363281 188.398438 60.363281 186.253906 60.363281 183.953125 C 63.058594 183.953125 65.703125 183.953125 68.414062 183.953125 C 68.414062 186.019531 68.414062 188.164062 68.414062 190.484375 C 65.765625 190.484375 63.125 190.484375 60.363281 190.484375 Z M 68.449219 192.351562 C 68.449219 194.476562 68.449219 196.601562 68.449219 198.921875 C 65.78125 198.921875 63.140625 198.921875 60.398438 198.921875 C 60.398438 196.878906 60.398438 194.703125 60.398438 192.351562 C 63.054688 192.351562 65.699219 192.351562 68.449219 192.351562 Z M 60.363281 182.09375 C 60.363281 180 60.363281 177.855469 60.363281 175.546875 C 63.039062 175.546875 65.683594 175.546875 68.40625 175.546875 C 68.40625 177.625 68.40625 179.765625 68.40625 182.09375 C 65.765625 182.09375 63.09375 182.09375 60.363281 182.09375 Z M 78.648438 83.175781 C 78.648438 85.453125 78.648438 87.59375 78.648438 89.761719 C 75.949219 89.761719 73.304688 89.761719 70.601562 89.761719 C 70.601562 87.519531 70.601562 85.378906 70.601562 83.175781 C 73.265625 83.175781 75.910156 83.175781 78.648438 83.175781 Z M 68.40625 89.695312 C 65.734375 89.695312 63.121094 89.695312 60.40625 89.695312 C 60.40625 87.453125 60.40625 85.285156 60.40625 83.074219 C 63.035156 83.074219 65.679688 83.074219 68.40625 83.074219 C 68.40625 85.308594 68.40625 87.449219 68.40625 89.695312 Z M 70.605469 116.710938 C 73.316406 116.710938 75.953125 116.710938 78.648438 116.710938 C 78.648438 118.925781 78.648438 121.058594 78.648438 123.261719 C 75.960938 123.261719 73.320312 123.261719 70.605469 123.261719 C 70.605469 121.09375 70.605469 118.953125 70.605469 116.710938 Z M 80.839844 192.136719 C 83.546875 192.136719 86.160156 192.136719 88.855469 192.136719 C 88.855469 194.339844 88.855469 196.480469 88.855469 198.703125 C 86.203125 198.703125 83.566406 198.703125 80.839844 198.703125 C 80.839844 196.484375 80.839844 194.351562 80.839844 192.136719 Z M 80.808594 47.820312 C 80.808594 45.679688 80.808594 43.566406 80.808594 41.339844 C 83.449219 41.339844 86.101562 41.339844 88.84375 41.339844 C 88.84375 43.421875 88.84375 45.558594 88.84375 47.820312 C 86.246094 47.820312 83.601562 47.820312 80.808594 47.820312 Z M 68.40625 106.46875 C 65.710938 106.46875 63.066406 106.46875 60.371094 106.46875 C 60.371094 104.253906 60.371094 102.105469 60.371094 99.886719 C 63.046875 99.886719 65.691406 99.886719 68.40625 99.886719 C 68.40625 102.089844 68.40625 104.265625 68.40625 106.46875 Z M 70.609375 150.25 C 73.324219 150.25 75.945312 150.25 78.636719 150.25 C 78.636719 152.425781 78.636719 154.566406 78.636719 156.800781 C 75.984375 156.800781 73.335938 156.800781 70.609375 156.800781 C 70.609375 154.660156 70.609375 152.515625 70.609375 150.25 Z M 70.609375 150.25 "/>
<path style=" stroke:none;fill-rule:nonzero;fill:rgb(12.941176%,58.823529%,95.294118%);fill-opacity:1;" d="M 199.691406 150.425781 C 199.191406 145.363281 197.871094 140.558594 195.34375 136.109375 C 194.558594 134.726562 193.738281 133.910156 192.03125 134.074219 C 190.621094 134.210938 189.175781 133.980469 187.746094 133.914062 C 185.90625 133.828125 184.066406 133.746094 182.160156 133.65625 C 182.160156 130.851562 182.113281 128.175781 182.183594 125.503906 C 182.203125 124.675781 181.925781 124.28125 181.199219 124.058594 C 178.019531 123.105469 174.855469 122.066406 171.648438 121.195312 C 169.804688 120.695312 167.886719 120.46875 165.949219 120.109375 C 165.949219 119.160156 165.949219 118.296875 165.949219 117.429688 C 165.949219 114.335938 165.953125 114.351562 168.863281 113.320312 C 173.921875 111.535156 178.921875 109.648438 183.203125 106.246094 C 187.996094 102.433594 191.441406 97.628906 193.46875 91.816406 C 195.308594 86.566406 195.46875 81.101562 195.078125 75.605469 C 194.78125 71.390625 193.835938 67.316406 191.878906 63.550781 C 190.351562 60.601562 188.148438 58.21875 185.351562 56.488281 C 179.410156 52.824219 172.871094 51.839844 166.054688 52.226562 C 164.066406 52.339844 162.070312 52.476562 160.050781 52.601562 C 160.011719 51.914062 159.976562 51.351562 159.945312 50.753906 C 157.28125 51.09375 154.738281 51.414062 152.15625 51.738281 C 152.15625 49.300781 152.15625 47.066406 152.15625 44.765625 C 154.78125 44.371094 157.363281 43.980469 159.953125 43.585938 C 159.953125 40.480469 159.953125 37.5 159.953125 34.550781 C 150.519531 35.886719 141.128906 37.214844 131.660156 38.554688 C 131.660156 44.269531 131.660156 49.96875 131.660156 55.871094 C 125.734375 56.140625 119.878906 56.410156 113.953125 56.679688 C 113.953125 54.296875 113.953125 52.066406 113.953125 49.769531 C 116.5 49.621094 118.988281 49.480469 121.449219 49.339844 C 121.449219 45.925781 121.449219 42.691406 121.449219 39.589844 C 111.246094 40.160156 101.148438 40.730469 90.941406 41.300781 C 90.941406 46.835938 90.941406 52.324219 90.941406 57.933594 C 84.105469 57.933594 77.386719 57.933594 70.601562 57.933594 C 70.601562 60.785156 70.601562 63.515625 70.601562 66.453125 C 73.273438 66.453125 75.886719 66.453125 78.511719 66.453125 C 78.511719 68.804688 78.511719 70.941406 78.511719 73.039062 C 75.804688 73.039062 73.191406 73.039062 70.621094 73.039062 C 70.621094 75.839844 70.621094 78.574219 70.621094 81.429688 C 74.019531 81.429688 77.328125 81.429688 80.800781 81.429688 C 80.800781 90.453125 80.800781 99.363281 80.800781 108.378906 C 83.488281 108.378906 86.03125 108.378906 88.574219 108.378906 C 88.574219 110.589844 88.574219 112.683594 88.574219 114.898438 C 85.953125 114.898438 83.414062 114.898438 80.824219 114.898438 C 80.824219 118.351562 80.824219 121.671875 80.824219 125.148438 C 83.453125 125.148438 86.019531 125.148438 88.609375 125.148438 C 88.609375 127.371094 88.609375 129.445312 88.609375 131.675781 C 85.996094 131.675781 83.425781 131.675781 80.726562 131.675781 C 80.726562 140.703125 80.726562 149.585938 80.726562 158.574219 C 77.269531 158.574219 73.960938 158.574219 70.625 158.574219 C 70.625 164.304688 70.625 169.914062 70.625 175.523438 C 73.246094 175.523438 75.785156 175.523438 78.480469 175.523438 C 78.480469 177.679688 78.480469 179.773438 78.480469 182.039062 C 82.71875 182.039062 86.808594 182.039062 91.039062 182.039062 C 91.039062 187.738281 91.039062 193.265625 91.039062 198.753906 C 97.933594 199.066406 104.679688 199.371094 111.601562 199.675781 C 111.601562 197.515625 111.601562 195.421875 111.601562 193.238281 C 114.300781 193.480469 116.828125 193.699219 119.488281 193.933594 C 119.488281 190.335938 119.488281 186.851562 119.488281 183.230469 C 123.628906 183.550781 127.625 183.859375 131.730469 184.179688 C 131.730469 190.03125 131.730469 195.761719 131.730469 201.40625 C 141.210938 202.746094 150.574219 204.070312 160.039062 205.410156 C 160.039062 199.398438 160.039062 193.429688 160.039062 187.34375 C 161.734375 187.464844 163.238281 187.574219 164.738281 187.683594 C 169.933594 188.054688 175.085938 187.984375 180.171875 186.601562 C 189.550781 184.050781 195.925781 178.386719 198.488281 168.660156 C 200.074219 162.683594 200.296875 156.578125 199.691406 150.425781 Z M 182.246094 67.054688 C 184.746094 66.679688 187.285156 66.304688 189.96875 65.90625 C 189.96875 68.539062 189.96875 71.085938 189.96875 73.765625 C 187.433594 74.078125 184.886719 74.398438 182.246094 74.730469 C 182.246094 72.164062 182.246094 69.679688 182.246094 67.054688 Z M 182.214844 86.691406 C 184.789062 86.445312 187.316406 86.203125 189.933594 85.953125 C 189.933594 88.558594 189.933594 91.125 189.933594 93.828125 C 187.40625 94 184.851562 94.175781 182.214844 94.351562 C 182.214844 91.691406 182.214844 89.226562 182.214844 86.691406 Z M 101.324219 65.738281 C 104.015625 65.605469 106.613281 65.480469 109.285156 65.351562 C 109.285156 67.628906 109.285156 69.769531 109.285156 72.03125 C 106.621094 72.148438 104.015625 72.273438 101.324219 72.394531 C 101.324219 70.15625 101.324219 68.015625 101.324219 65.738281 Z M 106.160156 91.625 C 106.160156 93.738281 106.160156 95.835938 106.160156 98.03125 C 103.574219 98.03125 100.96875 98.03125 98.273438 98.03125 C 98.273438 95.945312 98.273438 93.851562 98.273438 91.625 C 100.910156 91.625 103.488281 91.625 106.160156 91.625 Z M 91.199219 66.046875 C 93.828125 66.046875 96.398438 66.046875 99.046875 66.046875 C 99.046875 68.078125 99.046875 70.21875 99.046875 72.53125 C 96.429688 72.53125 93.855469 72.53125 91.199219 72.53125 C 91.199219 70.511719 91.199219 68.371094 91.199219 66.046875 Z M 86.871094 89.695312 C 86.871094 87.519531 86.871094 85.410156 86.871094 83.234375 C 89.488281 83.234375 92.101562 83.234375 94.789062 83.234375 C 94.789062 85.421875 94.789062 87.519531 94.789062 89.695312 C 92.09375 89.695312 89.511719 89.695312 86.871094 89.695312 Z M 88.886719 173.664062 C 86.25 173.664062 83.648438 173.664062 80.976562 173.664062 C 80.976562 171.601562 80.976562 169.460938 80.976562 167.183594 C 83.601562 167.183594 86.175781 167.183594 88.886719 167.183594 C 88.886719 169.289062 88.886719 171.394531 88.886719 173.664062 Z M 97.046875 156.765625 C 94.378906 156.765625 91.773438 156.765625 89.101562 156.765625 C 89.101562 154.660156 89.101562 152.554688 89.101562 150.34375 C 91.726562 150.34375 94.324219 150.34375 97.046875 150.34375 C 97.046875 152.476562 97.046875 154.578125 97.046875 156.765625 Z M 97.050781 148.355469 C 94.398438 148.355469 91.796875 148.355469 89.109375 148.355469 C 89.109375 146.265625 89.109375 144.164062 89.109375 141.941406 C 91.746094 141.941406 94.34375 141.941406 97.050781 141.941406 C 97.050781 144.089844 97.050781 146.164062 97.050781 148.355469 Z M 97.304688 116.734375 C 99.910156 116.734375 102.511719 116.734375 105.171875 116.734375 C 105.171875 118.890625 105.171875 121.035156 105.171875 123.25 C 102.570312 123.25 100 123.25 97.304688 123.25 C 97.304688 121.066406 97.304688 118.949219 97.304688 116.734375 Z M 109.316406 190.28125 C 106.675781 190.28125 104.039062 190.28125 101.339844 190.28125 C 101.339844 188.109375 101.339844 186.039062 101.339844 183.863281 C 103.980469 183.863281 106.609375 183.863281 109.316406 183.863281 C 109.316406 185.988281 109.316406 188.101562 109.316406 190.28125 Z M 116.210938 77.503906 C 116.886719 77.460938 138.289062 76.378906 140.871094 76.308594 C 157.566406 75.878906 157.113281 83.175781 157.234375 88.484375 C 157.453125 98.230469 153.460938 106.996094 133.386719 108.570312 C 132.703125 108.621094 116.445312 109.316406 116.210938 109.316406 C 116.210938 98.679688 116.210938 88.140625 116.210938 77.503906 Z M 129.898438 174.640625 C 128.585938 174.578125 123.359375 174.328125 122.023438 174.269531 C 122.023438 172.085938 122.023438 169.910156 122.023438 167.84375 C 124.628906 167.84375 127.234375 167.84375 129.898438 167.84375 C 129.898438 170.195312 129.898438 172.34375 129.898438 174.640625 Z M 150.210938 176.109375 C 148.261719 175.960938 143.011719 175.539062 142.339844 175.488281 C 142.339844 173.246094 142.339844 171.039062 142.339844 168.691406 C 144.339844 168.835938 146.285156 168.96875 148.246094 169.105469 C 148.898438 169.15625 149.554688 169.195312 150.210938 169.246094 C 150.210938 171.539062 150.210938 173.75 150.210938 176.109375 Z M 161.195312 154.921875 C 160.710938 156.773438 159.34375 163.730469 143.230469 163.710938 C 139.285156 163.703125 116.773438 162.765625 116.199219 162.765625 C 116.199219 152.03125 116.199219 141.570312 116.199219 130.949219 C 116.699219 130.949219 131.003906 131.261719 133.378906 131.390625 C 158.496094 132.746094 159.101562 137.671875 161.648438 146.835938 C 162.386719 149.464844 161.894531 152.261719 161.195312 154.921875 Z M 189.964844 164.050781 C 187.378906 163.746094 184.855469 163.445312 182.25 163.136719 C 182.25 160.613281 182.25 158.121094 182.25 155.449219 C 184.785156 155.699219 187.335938 155.945312 189.964844 156.199219 C 189.964844 158.886719 189.964844 161.421875 189.964844 164.050781 Z M 189.964844 164.050781 "/>
</g>
</svg>
